<svg xmlns="http://www.w3.org/2000/svg" xmlns:xlink="http://www.w3.org/1999/xlink" width="20" height="20" viewBox="0 0 20 20">
  <defs>
    <clipPath id="clip-path">
      <rect id="Rectangle_1533" data-name="Rectangle 1533" width="20" height="20" transform="translate(91 406)" fill="#000f14"/>
    </clipPath>
  </defs>
  <g id="Mask_Group_14" data-name="Mask Group 14" transform="translate(-91 -406)" clip-path="url(#clip-path)">
    <g id="Group_186" data-name="Group 186" transform="translate(91.002 406)">
      <g id="Path_447" data-name="Path 447">
        <path id="Path_584" data-name="Path 584" d="M18.1,15.252H1.9a.75.75,0,0,1-.416-1.374C1.5,13.867,3.85,12.141,3.85,6.4a6.15,6.15,0,1,1,12.3,0c0,5.74,2.352,7.466,2.375,7.482a.756.756,0,0,1,.287.843A.745.745,0,0,1,18.1,15.252Zm-14.546-1.5H16.444A13.126,13.126,0,0,1,14.65,6.4a4.65,4.65,0,1,0-9.3,0A13.126,13.126,0,0,1,3.556,13.752Z" fill="#000f14"/>
      </g>
      <g id="Path_448" data-name="Path 448">
        <path id="Path_585" data-name="Path 585" d="M9.995,19.749a2.53,2.53,0,0,1-1.274-.343,2.569,2.569,0,0,1-.928-.927.75.75,0,0,1,1.3-.752,1.042,1.042,0,0,0,.382.381,1.053,1.053,0,0,0,1.435-.382.75.75,0,0,1,1.3.753A2.554,2.554,0,0,1,9.995,19.749Z" fill="#000f14"/>
      </g>
    </g>
  </g>
</svg>
