<svg xmlns="http://www.w3.org/2000/svg" width="195" height="59.996" viewBox="0 0 195 59.996">
  <g id="Group_1447" data-name="Group 1447" transform="translate(-140 -14.999)">
    <g id="Group_1369" data-name="Group 1369" transform="translate(-30 -15)">
      <g id="Group_1369-2" data-name="Group 1369">
        <rect id="Rectangle_58091" data-name="Rectangle 58091" width="10.511" height="10.511" transform="translate(289.168 49.587)" fill="#00556f"/>
        <rect id="Rectangle_58092" data-name="Rectangle 58092" width="10.511" height="10.511" transform="translate(278.854 59.902)" fill="#00556f"/>
      </g>
      <text id="Innovation_Driven" data-name="Innovation
Driven" transform="translate(310 57)" fill="#00556f" font-size="12" font-family="DIN-Light, DIN Light" font-weight="300"><tspan x="0" y="0">Innovation</tspan><tspan x="0" y="12">Driven</tspan></text>
    </g>
    <g id="Group_1379" data-name="Group 1379" transform="translate(-173.465 -158.773)">
      <path id="Path_80484" data-name="Path 80484" d="M365.248,173.772H313.464V225.5h8.273v8.273h43.511q28.768,0,28.769-28.768v-2.46q0-28.768-28.769-28.768" transform="translate(0 0)" fill="#00455d"/>
      <rect id="Rectangle_58117" data-name="Rectangle 58117" width="8.273" height="8.273" transform="translate(321.737 217.223)" fill="#fff"/>
      <rect id="Rectangle_58118" data-name="Rectangle 58118" width="8.273" height="8.273" transform="translate(313.464 225.496)" fill="#fff"/>
      <path id="Path_80485" data-name="Path 80485" d="M336.828,246.761v-8.273h5.319a2.612,2.612,0,0,1,2.955,2.954v2.364a2.612,2.612,0,0,1-2.955,2.955Zm1.773-6.5v4.728h3.546a1.045,1.045,0,0,0,1.182-1.182v-2.364a1.044,1.044,0,0,0-1.182-1.182Z" transform="translate(-14.609 -40.465)" fill="#fff"/>
      <rect id="Rectangle_58119" data-name="Rectangle 58119" width="1.773" height="8.273" transform="translate(332.71 198.023)" fill="#fff"/>
      <path id="Path_80486" data-name="Path 80486" d="M378.429,238.487h3.546v1.772h-3.546a1.045,1.045,0,0,0-1.182,1.182v2.363a1.045,1.045,0,0,0,1.182,1.182h2.364a1.045,1.045,0,0,0,1.182-1.182v-.591h-2.364v-1.773h4.136v2.363a2.611,2.611,0,0,1-2.954,2.955h-2.364a2.612,2.612,0,0,1-2.955-2.955v-2.363a2.612,2.612,0,0,1,2.955-2.955" transform="translate(-38.773 -40.465)" fill="#fff"/>
      <rect id="Rectangle_58120" data-name="Rectangle 58120" width="1.773" height="8.273" transform="translate(347.192 198.023)" fill="#fff"/>
      <path id="Path_80487" data-name="Path 80487" d="M418.256,240.26v6.5h-1.773v-6.5H414.12v-1.772h6.5v1.772Z" transform="translate(-62.937 -40.465)" fill="#fff"/>
      <path id="Path_80488" data-name="Path 80488" d="M439.158,240.26v6.5h-1.773v-8.273H442.7a2.611,2.611,0,0,1,2.954,2.954q0,2.464-2.057,2.872l2.057,2.447h-2.316l-1.98-2.364H440.34v-1.773H442.7a1.182,1.182,0,0,0,0-2.364Z" transform="translate(-77.484 -40.465)" fill="#fff"/>
      <path id="Path_80489" data-name="Path 80489" d="M490.87,243.806v-5.318h1.773v5.318a1.045,1.045,0,0,0,1.182,1.182h2.363v1.773h-2.363a2.612,2.612,0,0,1-2.955-2.955" transform="translate(-110.927 -40.465)" fill="#fff"/>
      <path id="Path_80490" data-name="Path 80490" d="M467.234,238.487l-3.728,8.273h1.938l2.482-5.454,2.411,5.454h1.938l-3.668-8.273Z" transform="translate(-93.817 -40.465)" fill="#fff"/>
    </g>
  </g>
</svg>
