<svg xmlns="http://www.w3.org/2000/svg" width="116.902" height="102.064" viewBox="0 0 116.902 102.064">
  <g id="Preferences-rafiki_1_" data-name="Preferences-rafiki (1)" transform="translate(-56.11 -89)">
    <g id="freepik--Shadow--inject-392" transform="translate(56.11 184.239)" opacity="0.104">
      <ellipse id="freepik--path--inject-392" cx="58.451" cy="3.413" rx="58.451" ry="3.413" transform="translate(0 0)" fill="#282828"/>
    </g>
    <g id="freepik--Screen--inject-392" transform="translate(110.507 89)">
      <rect id="Rectangle_58168" data-name="Rectangle 58168" width="7.109" height="0.301" transform="translate(44.898 68.927) rotate(-86.86)" fill="#00556f"/>
      <rect id="Rectangle_58169" data-name="Rectangle 58169" width="3.663" height="0.301" transform="translate(45.419 59.466) rotate(-86.86)" fill="#00556f"/>
      <path id="Path_80844" data-name="Path 80844" d="M275.818,171.457H240.48a3.88,3.88,0,0,1-3.919-4.13l4.07-74.2A4.432,4.432,0,0,1,245,89h35.341a3.883,3.883,0,0,1,3.9,4.13l-4.073,74.2a4.429,4.429,0,0,1-4.356,4.13Z" transform="translate(-236.553 -89)" fill="#00556f"/>
      <path id="Path_80845" data-name="Path 80845" d="M273.681,171.457h-33.2a3.88,3.88,0,0,1-3.919-4.13l4.07-74.2A4.432,4.432,0,0,1,245,89h33.2a3.88,3.88,0,0,1,3.9,4.13l-4.07,74.2a4.435,4.435,0,0,1-4.359,4.13Z" transform="translate(-236.553 -89)" fill="#fff" opacity="0.8"/>
      <path id="Path_80846" data-name="Path 80846" d="M279.213,125.538h-9.535a1.637,1.637,0,0,1-1.646-1.745h0a1.869,1.869,0,0,1,1.839-1.742h9.535a1.634,1.634,0,0,1,1.646,1.742h0A1.872,1.872,0,0,1,279.213,125.538Z" transform="translate(-258.539 -112.086)" fill="#fff"/>
      <path id="Path_80847" data-name="Path 80847" d="M296.657,120.558a3.352,3.352,0,0,1-3.316,3.138,2.939,2.939,0,0,1-2.966-3.138,3.352,3.352,0,0,1,3.316-3.138,2.939,2.939,0,0,1,2.966,3.138Z" transform="translate(-274.144 -108.852)" fill="#00556f"/>
      <path id="Path_80848" data-name="Path 80848" d="M277.183,162.548h-9.535A1.637,1.637,0,0,1,266,160.8h0a1.869,1.869,0,0,1,1.839-1.742h9.535a1.634,1.634,0,0,1,1.646,1.742h0A1.872,1.872,0,0,1,277.183,162.548Z" transform="translate(-257.121 -137.939)" fill="#fff"/>
      <ellipse id="Ellipse_377" data-name="Ellipse 377" cx="3.226" cy="3.054" rx="3.226" ry="3.054" transform="translate(10.111 22.931) rotate(-44.21)" fill="#00556f"/>
      <ellipse id="Ellipse_378" data-name="Ellipse 378" cx="3.226" cy="3.054" rx="3.226" ry="3.054" transform="translate(10.111 22.931) rotate(-44.21)" fill="#fafafa" opacity="0.3"/>
      <path id="Path_80849" data-name="Path 80849" d="M263.581,236.568H273.1a1.872,1.872,0,0,0,1.839-1.746h0a1.634,1.634,0,0,0-1.649-1.742h-9.52a1.872,1.872,0,0,0-1.842,1.742h0a1.64,1.64,0,0,0,1.649,1.746Z" transform="translate(-254.279 -189.644)" fill="#fff"/>
      <ellipse id="Ellipse_379" data-name="Ellipse 379" cx="3.226" cy="3.054" rx="3.226" ry="3.054" transform="translate(6.353 45.241) rotate(-44.21)" fill="#00556f"/>
      <ellipse id="Ellipse_380" data-name="Ellipse 380" cx="3.226" cy="3.054" rx="3.226" ry="3.054" transform="translate(6.353 45.241) rotate(-44.21)" fill="#fafafa" opacity="0.7"/>
      <path id="Path_80850" data-name="Path 80850" d="M271.084,273.578h-9.532a1.64,1.64,0,0,1-1.649-1.745h0a1.872,1.872,0,0,1,1.842-1.743h9.532a1.634,1.634,0,0,1,1.649,1.743h0a1.872,1.872,0,0,1-1.842,1.745Z" transform="translate(-252.861 -215.497)" fill="#fff"/>
      <path id="Path_80851" data-name="Path 80851" d="M288.53,268.6a3.352,3.352,0,0,1-3.316,3.138,2.942,2.942,0,0,1-2.969-3.138,3.358,3.358,0,0,1,3.316-3.138,2.939,2.939,0,0,1,2.969,3.138Z" transform="translate(-268.466 -212.263)" fill="#00556f"/>
      <path id="Path_80852" data-name="Path 80852" d="M265.618,199.558h9.535a1.872,1.872,0,0,0,1.839-1.745h0a1.634,1.634,0,0,0-1.649-1.742h-9.532a1.869,1.869,0,0,0-1.839,1.742h0a1.637,1.637,0,0,0,1.646,1.745Z" transform="translate(-255.703 -163.792)" fill="#fff"/>
      <path id="Path_80853" data-name="Path 80853" d="M263.984,194.578a2.939,2.939,0,0,0,2.966,3.138,3.352,3.352,0,0,0,3.316-3.138,2.939,2.939,0,0,0-2.966-3.138A3.352,3.352,0,0,0,263.984,194.578Z" transform="translate(-255.71 -160.557)" fill="#00556f"/>
      <path id="Path_80854" data-name="Path 80854" d="M263.984,194.578a2.939,2.939,0,0,0,2.966,3.138,3.352,3.352,0,0,0,3.316-3.138,2.939,2.939,0,0,0-2.966-3.138A3.352,3.352,0,0,0,263.984,194.578Z" transform="translate(-255.71 -160.557)" fill="#fafafa" opacity="0.7"/>
      <path id="Path_80855" data-name="Path 80855" d="M340.137,122.866H326a.657.657,0,0,1-.657-.7h0a.748.748,0,0,1,.736-.7h14.133a.654.654,0,0,1,.657.7h0A.748.748,0,0,1,340.137,122.866Z" transform="translate(-298.578 -111.681)" fill="#fff"/>
      <path id="Path_80856" data-name="Path 80856" d="M335.114,130.966h-9.556a.657.657,0,0,1-.66-.7h0a.748.748,0,0,1,.736-.7h9.559a.657.657,0,0,1,.66.7h0A.751.751,0,0,1,335.114,130.966Z" transform="translate(-298.263 -117.339)" fill="#fff"/>
      <path id="Path_80857" data-name="Path 80857" d="M330.2,270.906h-12.36a.657.657,0,0,1-.657-.7h0a.745.745,0,0,1,.736-.7h12.345a.657.657,0,0,1,.66.7h0A.751.751,0,0,1,330.2,270.906Z" transform="translate(-292.878 -215.092)" fill="#fff"/>
      <path id="Path_80858" data-name="Path 80858" d="M323.56,279h-6.093a.657.657,0,0,1-.66-.7h0a.748.748,0,0,1,.736-.7h6.1a.657.657,0,0,1,.66.7h0a.748.748,0,0,1-.745.7Z" transform="translate(-292.613 -220.75)" fill="#fff"/>
      <path id="Path_80859" data-name="Path 80859" d="M337.736,166.58H323.6a.748.748,0,0,0-.736.7h0a.657.657,0,0,0,.66.7H337.66a.748.748,0,0,0,.736-.7h0a.657.657,0,0,0-.66-.7Z" transform="translate(-296.846 -143.192)" fill="#fff"/>
      <path id="Path_80860" data-name="Path 80860" d="M333.609,158.48h-9.556a.748.748,0,0,0-.736.7h0a.657.657,0,0,0,.657.7h9.559a.751.751,0,0,0,.736-.7h0a.654.654,0,0,0-.66-.7Z" transform="translate(-297.16 -137.534)" fill="#fff"/>
      <path id="Path_80861" data-name="Path 80861" d="M329.229,196.885h-7.235a.657.657,0,0,1-.657-.7h0a.745.745,0,0,1,.736-.7h7.235a.657.657,0,0,1,.669.7h0A.751.751,0,0,1,329.229,196.885Z" transform="translate(-295.777 -163.386)" fill="#fff"/>
      <path id="Path_80862" data-name="Path 80862" d="M358.926,196.886h-4.269a.657.657,0,0,1-.66-.7h0a.748.748,0,0,1,.736-.7H359a.654.654,0,0,1,.657.7h0A.751.751,0,0,1,358.926,196.886Z" transform="translate(-318.591 -163.387)" fill="#fff"/>
      <path id="Path_80863" data-name="Path 80863" d="M331.033,204.983h-9.565a.657.657,0,0,1-.66-.7h0a.748.748,0,0,1,.736-.7h9.572a.657.657,0,0,1,.66.7h0a.748.748,0,0,1-.742.7Z" transform="translate(-295.407 -169.045)" fill="#fff"/>
      <path id="Path_80864" data-name="Path 80864" d="M275.135,310.173H258.856a.9.9,0,0,1-.922-.977h0a1.049,1.049,0,0,1,1.031-.977h16.279a.9.9,0,0,1,.923.977h0A1.046,1.046,0,0,1,275.135,310.173Z" transform="translate(-251.486 -242.132)" fill="#fff"/>
      <path id="Path_80865" data-name="Path 80865" d="M337.846,310.173h-9.991a.9.9,0,0,1-.922-.977h0a1.049,1.049,0,0,1,1.031-.977h9.991a.9.9,0,0,1,.922.977h0A1.049,1.049,0,0,1,337.846,310.173Z" transform="translate(-299.685 -242.132)" fill="#fff"/>
      <path id="Path_80866" data-name="Path 80866" d="M270.646,321.473h-12.39a.9.9,0,0,1-.922-.977h0a1.046,1.046,0,0,1,1.031-.977h12.387a.9.9,0,0,1,.923.977h0A1.046,1.046,0,0,1,270.646,321.473Z" transform="translate(-251.067 -250.025)" fill="#fff"/>
      <path id="Path_80867" data-name="Path 80867" d="M283.667,332.833H257.636a.9.9,0,0,1-.922-.977h0a1.046,1.046,0,0,1,1.028-.977h26.032a.9.9,0,0,1,.922.977h0A1.046,1.046,0,0,1,283.667,332.833Z" transform="translate(-250.634 -257.961)" fill="#fff"/>
      <path id="Path_80868" data-name="Path 80868" d="M323.727,240.6h-4.184a.748.748,0,0,0-.736.7h0a.657.657,0,0,0,.66.7h4.184a.748.748,0,0,0,.736-.7h0a.657.657,0,0,0-.66-.7Z" transform="translate(-294.01 -194.898)" fill="#fff"/>
      <path id="Path_80869" data-name="Path 80869" d="M346.943,240.6h-4.851a.748.748,0,0,0-.736.7h0a.657.657,0,0,0,.66.7h4.851a.748.748,0,0,0,.736-.7h0a.654.654,0,0,0-.66-.7Z" transform="translate(-309.762 -194.898)" fill="#fff"/>
      <path id="Path_80870" data-name="Path 80870" d="M329.549,232.5h-9.556a.745.745,0,0,0-.736.7h0a.657.657,0,0,0,.657.7h9.559a.751.751,0,0,0,.736-.7h0a.657.657,0,0,0-.66-.7Z" transform="translate(-294.324 -189.239)" fill="#fff"/>
    </g>
    <g id="freepik--Character--inject-392" transform="translate(72.447 98.015)">
      <path id="Path_80871" data-name="Path 80871" d="M158.752,167.891c-.986.817-2,1.706-2.942,2.6-.47.449-.928.9-1.354,1.375a11.927,11.927,0,0,0-1.131,1.414l-.057.084-.027.048a.73.73,0,0,0-.063.121c-.042.093-.081.211-.124.335a6.591,6.591,0,0,0-.187.835,17.88,17.88,0,0,0-.181,1.9c-.063,1.3-.063,2.662-.039,3.991l-1.411.211a26,26,0,0,1-.724-4.157,15.956,15.956,0,0,1-.051-2.192,8.886,8.886,0,0,1,.151-1.176,4.788,4.788,0,0,1,.172-.645c.045-.118.078-.226.139-.35l.084-.181c.03-.054.051-.087.075-.136a12.158,12.158,0,0,1,1.287-1.884,21.2,21.2,0,0,1,1.438-1.616,31.579,31.579,0,0,1,3.171-2.837Z" transform="translate(-138.344 -151.544)" fill="#b55b52"/>
      <path id="Path_80872" data-name="Path 80872" d="M167.267,160.569a26.591,26.591,0,0,0-3.877,3.256l2.861,3.434s4.061-2.436,4.555-3.777C171.632,161.223,168.726,159.7,167.267,160.569Z" transform="translate(-147.386 -147.837)" fill="#00556f"/>
      <path id="Path_80873" data-name="Path 80873" d="M153.782,213.346l.35,2.041-1.9-.274s-.389-1.387.6-1.863Z" transform="translate(-139.542 -184.808)" fill="#b55b52"/>
      <path id="Path_80874" data-name="Path 80874" d="M152.426,220.946l-1.706-.531.509-.986,1.9.274Z" transform="translate(-138.536 -189.125)" fill="#b55b52"/>
      <path id="Path_80875" data-name="Path 80875" d="M214.32,136.361c0,.208.115.377.253.38s.244-.166.241-.371-.115-.377-.253-.38S214.317,136.156,214.32,136.361Z" transform="translate(-182.962 -130.84)" fill="#263238"/>
      <path id="Path_80876" data-name="Path 80876" d="M214.92,135.686l.5-.136S215.17,135.942,214.92,135.686Z" transform="translate(-183.382 -130.532)" fill="#263238"/>
      <path id="Path_80877" data-name="Path 80877" d="M214.91,137.9a5.727,5.727,0,0,0,.766,1.336.9.9,0,0,1-.745.127Z" transform="translate(-183.375 -132.174)" fill="#a02724"/>
      <path id="Path_80878" data-name="Path 80878" d="M212.5,131.948a.1.1,0,0,1-.06,0,1.013,1.013,0,0,0-.9.106.121.121,0,0,1-.172-.024.124.124,0,0,1,.024-.172,1.269,1.269,0,0,1,1.121-.142.124.124,0,0,1,.078.154A.13.13,0,0,1,212.5,131.948Z" transform="translate(-180.88 -127.804)" fill="#263238"/>
      <path id="Path_80879" data-name="Path 80879" d="M190.329,144.56c.139,1.559-.383,4.112-1.559,4.98,0,0,.886,1.64,3.726,2.023,3.126.419,1.658-1.339,1.658-1.339-1.661-.633-1.486-1.884-1.064-3.015Z" transform="translate(-165.115 -136.826)" fill="#b55b52"/>
      <path id="Path_80880" data-name="Path 80880" d="M210.506,166.7c1.486.4,3.048.793,4.579,1.14.772.166,1.543.3,2.315.467s1.547.271,2.315.371l.3.039.2.021h.452a8.037,8.037,0,0,0,1.043-.142,21.219,21.219,0,0,0,2.21-.582c1.486-.464,2.994-1.025,4.468-1.6l.669,1.257a31.848,31.848,0,0,1-4.362,2.391,19.625,19.625,0,0,1-2.412.9,10.187,10.187,0,0,1-1.342.3,7.316,7.316,0,0,1-.754.063h-.41l-.3-.024a39.612,39.612,0,0,1-4.944-.657,46.221,46.221,0,0,1-4.823-1.17Z" transform="translate(-179.742 -152.089)" fill="#b55b52"/>
      <path id="Path_80881" data-name="Path 80881" d="M270.37,164.67l.437-1.48,1.607.6s-.368,2.225-1.745,1.61Z" transform="translate(-222.115 -149.84)" fill="#b55b52"/>
      <path id="Path_80882" data-name="Path 80882" d="M272.752,159.93l1.64.184-.965,1.4-1.607-.6Z" transform="translate(-223.128 -147.563)" fill="#b55b52"/>
      <path id="Path_80883" data-name="Path 80883" d="M178.64,393.123l2.584.19.769-5.933-2.584-.19Z" transform="translate(-158.039 -306.311)" fill="#b55b52"/>
      <path id="Path_80884" data-name="Path 80884" d="M115.44,360.876l1.755,1.947,4.9-3.388-1.755-1.944Z" transform="translate(-113.891 -285.565)" fill="#b55b52"/>
      <path id="Path_80885" data-name="Path 80885" d="M123.9,376.293a.352.352,0,0,1-.093,0c-.3-.1-.528-.684-.627-1.022a.06.06,0,0,1,.087-.069c.093.048.925.5.953.832a.208.208,0,0,1-.087.187.368.368,0,0,1-.232.072Zm-.558-.926c.151.446.335.739.5.793a.22.22,0,0,0,.211-.051.093.093,0,0,0,.042-.081C124.079,375.853,123.666,375.558,123.337,375.368Z" transform="translate(-119.293 -297.932)" fill="#00556f"/>
      <path id="Path_80886" data-name="Path 80886" d="M123.993,374.841a1.851,1.851,0,0,1-.793-.2.066.066,0,0,1-.03-.054.054.054,0,0,1,.033-.051c.024-.015.663-.368,1.016-.247a.329.329,0,0,1,.205.19.211.211,0,0,1-.048.265A.6.6,0,0,1,123.993,374.841Zm-.627-.25a1.3,1.3,0,0,0,.932.066c.021-.021.045-.051,0-.127a.211.211,0,0,0-.13-.124A1.374,1.374,0,0,0,123.366,374.59Z" transform="translate(-119.291 -297.284)" fill="#00556f"/>
      <path id="Path_80887" data-name="Path 80887" d="M114.393,368.024l-1.447-2.569a.208.208,0,0,0-.256-.1l-2.137.82a.419.419,0,0,0-.187.6c.522.886.814,1.287,1.45,2.412.392.693.995,2.21,1.459,3.208s1.447.6,1.342.151a9.089,9.089,0,0,1-.145-4.064A.69.69,0,0,0,114.393,368.024Z" transform="translate(-110.303 -291.053)" fill="#263238"/>
      <path id="Path_80888" data-name="Path 80888" d="M188.941,406.255a4.52,4.52,0,0,1-.814-.09.063.063,0,0,1-.048-.051.06.06,0,0,1,.033-.063c.118-.06,1.167-.6,1.477-.413a.193.193,0,0,1,.1.163.35.35,0,0,1-.121.3A.989.989,0,0,1,188.941,406.255Zm-.6-.178A1.669,1.669,0,0,0,189.5,406a.229.229,0,0,0,.075-.2.075.075,0,0,0-.036-.066c-.178-.093-.772.13-1.2.335Z" transform="translate(-164.631 -319.169)" fill="#00556f"/>
      <path id="Path_80889" data-name="Path 80889" d="M188.139,404.8a.057.057,0,0,1-.036,0,.054.054,0,0,1-.024-.054c0-.048.124-1.1.7-1.1h.051c.166.015.214.1.226.169.048.3-.579.853-.9.992l-.015,0Zm.645-1.049c-.374,0-.522.6-.567.877.323-.193.748-.63.721-.808,0,0,0-.054-.118-.066Z" transform="translate(-164.631 -317.802)" fill="#00556f"/>
      <path id="Path_80890" data-name="Path 80890" d="M179.618,406.28h-2.906a.214.214,0,0,0-.211.178l-.389,2.3a.407.407,0,0,0,.4.461c1.013-.018,1.507-.078,2.78-.078.784,0,2.412.081,3.494.081s1.17-1.07.72-1.17a6.789,6.789,0,0,1-3.464-1.61A.666.666,0,0,0,179.618,406.28Z" transform="translate(-156.27 -319.646)" fill="#263238"/>
      <path id="Path_80891" data-name="Path 80891" d="M182.852,387.383l-.428,3.3-2.553-.428.395-3.063Z" transform="translate(-158.898 -306.311)" opacity="0.2"/>
      <path id="Path_80892" data-name="Path 80892" d="M126.849,357.49l1.755,1.947-2.026,1.4-1.818-1.9Z" transform="translate(-120.402 -285.565)" opacity="0.2"/>
      <path id="Path_80893" data-name="Path 80893" d="M174.242,176.085l10.455,1.4c4.055-14.678,2.858-15.073,2.858-15.073a21.018,21.018,0,0,0-2.412-.953l-.142-.045c-.675-.205-.817-.232-1.718-.437-1.547-.274-2.982-.485-4.754-.636-.112,0-.226-.021-.338-.027-.32-.021-.636-.036-.944-.048h-1.622a1.45,1.45,0,0,0-1.408,1.616C175.113,169.594,174.83,172.136,174.242,176.085Z" transform="translate(-154.943 -147.8)" fill="#00556f"/>
      <path id="Path_80894" data-name="Path 80894" d="M210,176.563c.072.681,1.646,1.926,2.192,1.592.157-.817.271-1.507.353-2.062C211.755,176.032,210.208,175.161,210,176.563Z" transform="translate(-179.945 -158.627)" opacity="0.2"/>
      <path id="Path_80895" data-name="Path 80895" d="M204.368,164.7c-.075-2.412,5.77.244,7.112.844l-1.5,4.043a8.2,8.2,0,0,1-3.2-.787A5.053,5.053,0,0,1,204.368,164.7Z" transform="translate(-176.01 -150.196)" fill="#00556f"/>
      <path id="Path_80896" data-name="Path 80896" d="M190.973,126.414c.193,2.55.22,3.633,1.54,4.959,1.981,1.993,5.1,1.287,5.68-1.248.522-2.282.118-6.069-2.412-7.118a3.422,3.422,0,0,0-4.808,3.407Z" transform="translate(-166.645 -121.562)" fill="#b55b52"/>
      <path id="Path_80897" data-name="Path 80897" d="M171.243,121.065c-2.562-.642-2.644,1.507-2.59,2.641s-1.83,1.676-1.83,3.1c0,1.851,1.4,2.954-2,3.515-2.873.473-3.759,4.064.491,6.165,4.706,2.321,11.805-.947,10.943-4.055-1.32-4.8,1.052-4.781.79-7.464-.2-1.947,1.649-2.044.986-3.669C177.161,119.169,171.02,117.3,171.243,121.065Z" transform="translate(-146.693 -118.906)" fill="#263238"/>
      <path id="Path_80898" data-name="Path 80898" d="M181.5,128.684c-.353-1.857-.16-3.087.573-3.663a2.651,2.651,0,0,1,2.454-.072l-.124.274s-1.348-.6-2.146.033c-.636.5-.79,1.637-.461,3.37Z" transform="translate(-159.919 -122.928)" fill="#263238"/>
      <path id="Path_80899" data-name="Path 80899" d="M167.812,148.483a5.876,5.876,0,0,1-1.932-.392l.112-.28c.021,0,2.053.808,2.994.027.458-.38.588-1.091.389-2.11l.3-.057a2.381,2.381,0,0,1-.491,2.412A2.11,2.11,0,0,1,167.812,148.483Z" transform="translate(-149.126 -137.601)" fill="#263238"/>
      <path id="Path_80900" data-name="Path 80900" d="M208.683,137.131a2.312,2.312,0,0,0,.353,1.351c.35.57.823.464.977-.018a1.661,1.661,0,0,0-.347-1.67C209.192,136.381,208.731,136.6,208.683,137.131Z" transform="translate(-179.023 -131.251)" fill="#b55b52"/>
      <path id="Path_80901" data-name="Path 80901" d="M147.885,213.764s-4.064,17.184-5.963,27.038c-2,10.41-13.867,18.9-13.867,18.9l-2.6-2.68s7.639-6.686,9.6-16.406c3.982-19.728,1.287-23.7,5.125-27.889Z" transform="translate(-120.884 -184.445)" fill="#263238"/>
      <path id="Path_80902" data-name="Path 80902" d="M127.293,359.8l-3.253-3.346.913-.983,3.777,3.325Z" transform="translate(-119.899 -284.154)" fill="#00556f"/>
      <path id="Path_80903" data-name="Path 80903" d="M186.469,227.445c-3.159,2.743-2.819,12.478-2.487,16.864,1.323-6.237,2.918-13.183,3.853-17.2C187.5,226.86,187.048,226.942,186.469,227.445Z" transform="translate(-161.626 -194.394)" opacity="0.2"/>
      <path id="Path_80904" data-name="Path 80904" d="M187.2,215.066s1.827,20.388.829,28.166c-1.037,8.088-6.331,25.688-6.331,25.688l-3.7-.479s3.015-17.443,3.566-25.45c.585-8.742-2.017-28.941-2.017-28.941Z" transform="translate(-157.592 -185.367)" fill="#263238"/>
      <path id="Path_80905" data-name="Path 80905" d="M180.642,391.545l-5.312-.687.081-1.568,5.764.558Z" transform="translate(-155.727 -307.778)" fill="#00556f"/>
      <path id="Path_80906" data-name="Path 80906" d="M172.646,210.548l-.573.865c-.042.069.036.154.157.169l10.967,1.486c.093,0,.178-.024.19-.081l.193-.9c.015-.063-.063-.13-.166-.145l-10.6-1.42A.181.181,0,0,0,172.646,210.548Z" transform="translate(-153.444 -182.893)" fill="#00556f"/>
      <path id="Path_80907" data-name="Path 80907" d="M172.646,210.548l-.573.865c-.042.069.036.154.157.169l10.967,1.486c.093,0,.178-.024.19-.081l.193-.9c.015-.063-.063-.13-.166-.145l-10.6-1.42A.181.181,0,0,0,172.646,210.548Z" transform="translate(-153.444 -182.893)" opacity="0.3"/>
      <path id="Path_80908" data-name="Path 80908" d="M177.458,212.031l-.283-.036c-.057,0-.1-.042-.087-.078l.259-1.191c0-.033.06-.054.118-.048l.283.039c.057,0,.1.042.09.075l-.262,1.191C177.569,212.019,177.515,212.04,177.458,212.031Z" transform="translate(-156.953 -183.011)" fill="#263238"/>
      <path id="Path_80909" data-name="Path 80909" d="M201.232,215.279l-.283-.039c-.057,0-.1-.042-.09-.075l.262-1.191c0-.033.06-.057.118-.048l.283.036c.057,0,.1.042.087.078l-.259,1.191C201.341,215.264,201.29,215.288,201.232,215.279Z" transform="translate(-173.559 -185.279)" fill="#263238"/>
    </g>
  </g>
</svg>
