<svg xmlns="http://www.w3.org/2000/svg" width="20" height="19.99" viewBox="0 0 20 19.99">
  <g id="noun_Download_2176275" transform="translate(0.002)">
    <path id="Path_490" data-name="Path 490" d="M9.988,0a.714.714,0,0,0-.7.714V.724h0V13.273L4.794,8.782a.714.714,0,1,0-1.009,1.01L9.494,15.5l.008.007h0l.022.021h0l.029.026h0l.019.014h0l.034.024,0,0,.026.016,0,0,.029.016,0,0,.026.012,0,0,.029.013,0,0,.032.011h.005l.025.009h0l.032.008h0l.029.006h0l.031,0h0l.034,0h.074c.022,0,.043,0,.064,0h0l.049-.008h0l.039-.008h0l.032-.008h0l.047-.014H10.23l.031-.011,0,0a.415.415,0,0,0,.042-.018l0,0,.058-.029,0,0,0,0,0,0c.017-.009.03-.018.043-.027l0,0,.03-.021h0l.047-.037h0l0,0h0c.012-.01.023-.019.033-.029l5.708-5.708a.714.714,0,0,0-.5-1.226h-.021a.713.713,0,0,0-.491.215h0l-4.49,4.491V.716A.713.713,0,0,0,10,0H9.988ZM.722,18.563H.712a.714.714,0,1,0,0,1.427H19.284a.714.714,0,0,0,0-1.427H.722Z" transform="translate(0)" fill="#000f14"/>
  </g>
</svg>
