<svg id="Layer_1" data-name="Layer 1" xmlns="http://www.w3.org/2000/svg" viewBox="0 0 200 200"><defs><style>.cls-1{fill:#6fd6a2;}.cls-2{fill:#3ec2a3;}.cls-3{fill:#ee6062;}.cls-4{fill:#e94952;}.cls-5{fill:#e9f5fe;}.cls-6{fill:#d7ebfd;}.cls-7{fill:#00556f;}.cls-8{fill:#d9ecfd;}</style></defs><path class="cls-1" d="M93.37,1.1c2.71.38,5.44.71,8.14,1.15a84.59,84.59,0,0,1,42,19.4,85.14,85.14,0,0,1,27.94,44.74,86.61,86.61,0,0,1-1.6,48.26c-.74.58-1.47.12-2.18-.06a65.25,65.25,0,0,0-9-1.72,2,2,0,0,1-1.21-.43c-.33-1.41.34-2.65.71-3.92a70.32,70.32,0,0,0,2.92-17.8,35.82,35.82,0,0,0,0-6,64,64,0,0,0-2.45-16.51A71.39,71.39,0,0,0,143,39.2c-.39-.43-.72-.91-1.08-1.36a55.57,55.57,0,0,0-4.54-4.54,77.28,77.28,0,0,0-18.92-12.55,71.06,71.06,0,0,0-24.13-6.41,13.29,13.29,0,0,0-3.83-.23,36.36,36.36,0,0,0-5.81,0c-4.61-.3-9.06.7-13.5,1.68A72.24,72.24,0,0,0,37.79,33.24c-1.56,1.45-3,3-4.53,4.51A73,73,0,0,0,17.93,63.31c-.29.85-.14,2.13-1.53,2.31-.71-1.32,0-2.53.38-3.71A87.16,87.16,0,0,1,61.22,9.7,81.49,81.49,0,0,1,86.89,1.63c1.64-.22,3.34.05,4.94-.53Z"/><path class="cls-2" d="M91.83,1.1c-2.48,1.18-5.23,1-7.83,1.48A89.35,89.35,0,0,0,65.68,8.17,84.49,84.49,0,0,0,45.22,20.6,86.31,86.31,0,0,0,16.68,64.1a10.89,10.89,0,0,0-.2,1.52c.69.87.16,1.73-.05,2.57a62.86,62.86,0,0,0-2.36,16.36,38.14,38.14,0,0,0,0,6.14,61.9,61.9,0,0,0,2.36,16.4,13.3,13.3,0,0,1,.54,2.22c.42,4.37,2.25,8.3,3.92,12.25a83.56,83.56,0,0,0,21,29.51A84,84,0,0,0,75.1,170a86.91,86.91,0,0,0,14.33,3c.78.09,1.72.06,2,1.13A86.65,86.65,0,0,1,2.71,105,54.39,54.39,0,0,1,1.4,95.47,1.68,1.68,0,0,0,1,94.2V81.07c.45-3.23.32-6.5,1-9.72A87.19,87.19,0,0,1,74.14,1.58c2.26-.36,4.59-.13,6.87-.48Z"/><path class="cls-3" d="M158.68,112.44a55,55,0,0,1,11.16,2.21c6.29,2.47,12.07,5.79,16.69,10.79C198.15,138,201.9,152.7,196.6,169c-5.24,16.09-16.72,25.79-33.38,29.19a17.48,17.48,0,0,1-4.94.67c-.12-.21.39-.48.08-.54a41.06,41.06,0,0,1-22.57-12.52,42,42,0,0,1-11.66-24.7c-1.66-14.54,2.82-26.95,13.23-37.13a42.1,42.1,0,0,1,20.3-11C158,112.88,158.65,113.19,158.68,112.44Z"/><path class="cls-4" d="M158.68,112.44l.77.5c-22.63,5-36.25,24.19-35.16,45,.9,17.16,12.24,35.13,35.15,40.36l-1.16.54A43.27,43.27,0,0,1,115,171c-.14-.36-.31-.7-.46-1.06a4.51,4.51,0,0,1-1.29-2.52,44,44,0,0,1-1.51-9.67,41.9,41.9,0,0,1,3.37-19q9.94-22.29,34.06-26.46a29.18,29.18,0,0,1,6.33-.41c.69,0,1.43-.1,2,.45Z"/><path class="cls-1" d="M112.24,157.6a52.6,52.6,0,0,0,2.33,12.31,102.92,102.92,0,0,1-22.21,4.25,6.24,6.24,0,0,1-1,0c-2.35-1.15-5-1-7.47-1.43A86.55,86.55,0,0,1,21.8,124.84a73.47,73.47,0,0,1-5.12-13.67,12.62,12.62,0,0,1-.19-1.52c1.29.31,1.18,1.54,1.48,2.42a72.75,72.75,0,0,0,15.29,25.45c1.47,1.54,3,3,4.53,4.51a73.77,73.77,0,0,0,40.4,18.77,20,20,0,0,0,6.51.36,35.7,35.7,0,0,0,5.94,0,71.85,71.85,0,0,0,17.89-2.92C109.73,157.87,110.91,157.22,112.24,157.6Z"/><path class="cls-5" d="M112.24,157.6A83,83,0,0,1,92,161.77a1.65,1.65,0,0,1-1.45-.28,3.12,3.12,0,0,1-.47-2.2c0-2,0-4.11,0-6.16,0-.64,0-1.28,0-1.92,0-2.53-1-4.09-2.59-4.06s-2.43,1.56-2.46,4c0,2.18,0,4.36,0,6.53a6.55,6.55,0,0,1-.22,2.29c-.67,1.05-1.64.52-2.44.34A67.91,67.91,0,0,1,69.43,156,77.32,77.32,0,0,1,44.37,138a3.06,3.06,0,0,1-1.15-1.94c.18-1.26,1.26-1.87,2-2.71,1.25-1.42,1.39-2.69.38-3.73s-2.32-.93-3.73.27c-.75.64-1.26,1.7-2.51,1.5a15.55,15.55,0,0,1-3.25-4.28,72.15,72.15,0,0,1-10.9-32.82c-.08-1.14-.59-2.27-.11-3.43a1.42,1.42,0,0,1,.72-.6c1.19-.56,2.42-1.22,2.37-2.72s-1.28-2.11-2.48-2.65a1.53,1.53,0,0,1-.58-.49c-.62-2,0-4,.25-5.92a73,73,0,0,1,12.55-33,4.91,4.91,0,0,1,1.37-1.6c1.18-.3,1.69.69,2.38,1.29a3.47,3.47,0,0,0,2.14,1.17A2.27,2.27,0,0,0,46,45a2.34,2.34,0,0,0-.37-2.68c-.8-1.06-2.13-1.7-2.43-3.14a2.62,2.62,0,0,1,1-1.81A75.56,75.56,0,0,1,82,15.05c.93-.23,2-.89,2.83.21.54,2.81.13,5.64.26,8.45a7.28,7.28,0,0,0,.3,2.67,2.47,2.47,0,0,0,2.13,1.72,2.43,2.43,0,0,0,2.31-1.74,5.31,5.31,0,0,0,.31-2.27c0-2.64,0-5.27,0-7.91a3.44,3.44,0,0,1,.47-2.4c1.84-.78,3.69,0,5.47.18a73.53,73.53,0,0,1,41.54,18.9,2.57,2.57,0,0,1,.22.32c.19,1-.58,1.37-1.09,1.89-2,2-4,4-6,6a12.44,12.44,0,0,0-1.07,1.11c-1,1.25-1,2.5-.09,3.45a2.31,2.31,0,0,0,3.44-.09c2.36-2.19,4.55-4.55,6.86-6.78.61-.59,1.06-1.52,2.16-1.37a72.46,72.46,0,0,1,18.19,35.29c.73,3.46,1,7,1.44,10.47a1.69,1.69,0,0,1-.24,1.46,3.38,3.38,0,0,1-2.39.49c-2.44,0-4.88,0-7.32,0a14.45,14.45,0,0,0-1.74,0c-1.67.19-2.95,1.33-2.88,2.56A2.89,2.89,0,0,0,150,90.09c2.95.17,5.91,0,8.86.08a3.68,3.68,0,0,1,2.59.48c.48,2.75-.14,5.44-.52,8.12a70.28,70.28,0,0,1-3.36,13.53,42.61,42.61,0,0,0-21.73,4.79c-13.19,7.13-21,18.07-23.19,33C112.26,152.61,112.47,155.1,112.24,157.6Z"/><path class="cls-6" d="M39.59,44a73.4,73.4,0,0,0-13,29.69,66.8,66.8,0,0,0-1.26,10.84c-.09.09-.18.24-.28.25a30.62,30.62,0,0,1-11.45-.1c-.67-2.36.13-4.66.34-7a83.4,83.4,0,0,1,2.49-12.09c1.17-2.91,2.25-5.85,3.51-8.71A73.15,73.15,0,0,1,32.39,38a4.85,4.85,0,0,1,.74-.6c.59-.14,1,.24,1.33.59,1.57,1.51,3.11,3,4.6,4.61C39.42,42.94,40,43.31,39.59,44Z"/><path class="cls-6" d="M84.47,15A73.47,73.47,0,0,0,55.6,27.86a81.65,81.65,0,0,0-11,9.85c-.44.45-1,.8-1.05,1.55-.08.11-.22.22-.3.17-2.33-1.74-4.65-3.5-5.94-6.24a62.66,62.66,0,0,1,13.36-10A73.32,73.32,0,0,1,78.16,14c2.08-.28,4.26-1.11,6.42-.19A.9.9,0,0,1,84.47,15Z"/><path class="cls-7" d="M84.47,15l.11-1.22a11.73,11.73,0,0,1,6,0c0,3.79,0,7.58,0,11.37,0,2.24-1.29,3.71-3.08,3.66s-2.92-1.46-3-3.6C84.51,21.81,84.5,18.41,84.47,15Z"/><path class="cls-7" d="M161.42,90.65c-3.74,0-7.47,0-11.2,0-2.39,0-3.9-1.27-3.83-3.12s1.51-2.91,3.83-2.92c3.73,0,7.46,0,11.2,0A11.85,11.85,0,0,1,161.42,90.65Z"/><path class="cls-7" d="M37.31,33.19l6.24,6.07c.79.84,1.61,1.66,2.37,2.53A3,3,0,1,1,41.71,46c-.72-.64-1.41-1.31-2.12-2l-6.46-6.63A31.75,31.75,0,0,1,37.31,33.19Z"/><path class="cls-7" d="M142,37.4c-2.73,2.73-5.45,5.46-8.19,8.16-1.67,1.65-3.42,1.77-4.71.39s-1.08-3,.52-4.57c2.71-2.75,5.44-5.47,8.16-8.2A27.16,27.16,0,0,1,142,37.4Z"/><path class="cls-6" d="M25.38,90.75a76,76,0,0,0,6.31,26.94,71.08,71.08,0,0,0,7.9,13.58.55.55,0,0,1,0,.84,59.71,59.71,0,0,1-5.69,5.67.82.82,0,0,1-.73.13A66.18,66.18,0,0,1,23,124.37c-2.76-4.65-4.57-9.72-6.55-14.72a82.48,82.48,0,0,1-2.49-12c-.21-2.34-1-4.66-.35-7a2.77,2.77,0,0,1,1.81-.47c2.66,0,5.32,0,8,0A2.43,2.43,0,0,1,25.38,90.75Z"/><path class="cls-7" d="M25.38,90.75l-11.72-.16a14.18,14.18,0,0,1,0-5.91l11.72-.15c3.54.35,4.08,3.48,2.57,5.1A4.57,4.57,0,0,1,25.38,90.75Z"/><path class="cls-6" d="M159.82,162.59a5.68,5.68,0,0,1-6.34,1.4,6.13,6.13,0,0,1-4.43-4.88,53.46,53.46,0,0,1-.63-6.32c-.4-6.72-1.37-13.41-1.33-20.16,0-6.1,7.23-10,12.45-6.82,0,.19-.08.41-.24.52-4.1,3-3.84,7.29-3.45,11.56.53,5.76.91,11.53,1.36,17.29C157.43,158,157.73,160.55,159.82,162.59Z"/><path class="cls-5" d="M159.82,162.59c-2.75-.93-2.86-3.41-3-5.64-.55-6.34-1-12.69-1.49-19-.23-3.22-.92-6.67,1.39-9.64a7.48,7.48,0,0,1,2.87-2.46,7.56,7.56,0,0,1,4.49,7.45c-.28,6-.83,12-1.28,18-.17,2.3-.38,4.6-.58,6.9A5.7,5.7,0,0,1,159.82,162.59Z"/><path class="cls-8" d="M155.62,174.18a6.18,6.18,0,0,1-.06,12.36,6.18,6.18,0,1,1,.06-12.36Z"/><path class="cls-6" d="M43.55,136c1.6,2.76,4.09,4.75,6.39,6.81a74.82,74.82,0,0,0,34.53,17.45.89.89,0,0,1,.11,1.21c-2.16.92-4.34.1-6.42-.18a73.61,73.61,0,0,1-33.33-13,46.77,46.77,0,0,1-7.52-6.24c-.14-.59.24-1,.59-1.33,1.38-1.43,2.77-2.84,4.21-4.21C42.49,136.18,42.86,135.6,43.55,136Z"/><path class="cls-7" d="M84.58,161.48l-.11-1.21c0-3.34,0-6.68.09-10,0-2.3,1.16-3.75,3-3.8s3.08,1.45,3.08,3.85c0,3.73,0,7.46,0,11.19A11.73,11.73,0,0,1,84.58,161.48Z"/><path class="cls-7" d="M43.55,136l-6.24,6.07a32.29,32.29,0,0,1-4.18-4.17l6.46-6.64c.75-.69,1.48-1.42,2.26-2.08a3,3,0,0,1,4.2,4.14C45.26,134.26,44.39,135.12,43.55,136Z"/><path class="cls-7" d="M84.57,82.17q0-18.53,0-37.06c0-2.28,1.22-3.74,3-3.74s3,1.47,3,3.74q0,18.53,0,37.06A48.21,48.21,0,0,0,84.57,82.17Z"/><path class="cls-7" d="M93,84.64c7.51,0,15,0,22.54,0,2.48,0,3.81,1.14,3.76,3.11s-1.35,2.92-3.76,2.93c-7.51,0-15,0-22.54,0A41.43,41.43,0,0,0,93,84.64Z"/><path class="cls-3" d="M93,84.64a6.52,6.52,0,0,1,0,6c-1.58,2.3-3.71,3.62-6.55,3.07a5.92,5.92,0,0,1-4.89-4.62c-.72-3,.53-5.24,3-6.92a6.66,6.66,0,0,1,6,0A9.59,9.59,0,0,1,93,84.64Z"/></svg>