<svg xmlns="http://www.w3.org/2000/svg" xmlns:xlink="http://www.w3.org/1999/xlink" width="20" height="20" viewBox="0 0 20 20">
  <defs>
    <clipPath id="clip-path">
      <rect id="Rectangle_1535" data-name="Rectangle 1535" width="20" height="20" fill="#fff"/>
    </clipPath>
  </defs>
  <g id="Mask_Group_13" data-name="Mask Group 13" clip-path="url(#clip-path)">
    <g id="Group_185" data-name="Group 185" transform="translate(0.749 0.75)">
      <g id="Group_174" data-name="Group 174">
        <path id="Path_575" data-name="Path 575" d="M17.46,4.54a8.629,8.629,0,0,0-2-2,9.222,9.222,0,0,0-10.92,0,8.629,8.629,0,0,0-2,2,9.222,9.222,0,0,0,0,10.92,8.629,8.629,0,0,0,2,2,9.222,9.222,0,0,0,10.92,0,8.629,8.629,0,0,0,2-2,9.222,9.222,0,0,0,0-10.92Zm-5.07,9.85a4.987,4.987,0,0,1-4.78,0,5.063,5.063,0,0,1-2-2,4.987,4.987,0,0,1,0-4.78,5.063,5.063,0,0,1,2-2,4.987,4.987,0,0,1,4.78,0,5.063,5.063,0,0,1,2,2,4.987,4.987,0,0,1,0,4.78A5.063,5.063,0,0,1,12.39,14.39Z" transform="translate(-0.75 -0.75)" fill="none" stroke="#fff" stroke-linecap="round" stroke-miterlimit="10" stroke-width="1.5"/>
      </g>
      <g id="Group_179" data-name="Group 179" transform="translate(1.04 1.04)">
        <g id="Group_175" data-name="Group 175" transform="translate(0 9.85)">
          <path id="Path_576" data-name="Path 576" d="M2.54,16.21a.75.75,0,0,1-.53-1.28l3.07-3.07a.75.75,0,1,1,1.061,1.06L3.07,15.99A.744.744,0,0,1,2.54,16.21Z" transform="translate(-1.79 -11.64)" fill="#fff"/>
        </g>
        <g id="Group_176" data-name="Group 176" transform="translate(9.849)">
          <path id="Path_577" data-name="Path 577" d="M12.39,6.36a.75.75,0,0,1-.531-1.28L14.93,2.01a.75.75,0,0,1,1.06,1.06L12.92,6.14A.746.746,0,0,1,12.39,6.36Z" transform="translate(-11.639 -1.79)" fill="#fff"/>
        </g>
        <g id="Group_177" data-name="Group 177" transform="translate(11.849 2)">
          <path id="Path_578" data-name="Path 578" d="M14.39,8.36a.75.75,0,0,1-.531-1.28L16.93,4.01a.75.75,0,1,1,1.06,1.06L14.92,8.14A.746.746,0,0,1,14.39,8.36Z" transform="translate(-13.639 -3.79)" fill="#fff"/>
        </g>
        <g id="Group_178" data-name="Group 178" transform="translate(2 11.85)">
          <path id="Path_579" data-name="Path 579" d="M4.54,18.21a.75.75,0,0,1-.53-1.28l3.07-3.07a.75.75,0,1,1,1.061,1.06L5.07,17.99A.744.744,0,0,1,4.54,18.21Z" transform="translate(-3.79 -13.64)" fill="#fff"/>
        </g>
      </g>
      <g id="Group_184" data-name="Group 184" transform="translate(1.04 1.04)">
        <g id="Group_180" data-name="Group 180" transform="translate(0 2)">
          <path id="Path_580" data-name="Path 580" d="M5.61,8.36a.746.746,0,0,1-.53-.22L2.01,5.07A.75.75,0,0,1,3.07,4.01L6.141,7.08A.75.75,0,0,1,5.61,8.36Z" transform="translate(-1.79 -3.79)" fill="#fff"/>
        </g>
        <g id="Group_181" data-name="Group 181" transform="translate(9.849 11.85)">
          <path id="Path_581" data-name="Path 581" d="M15.46,18.21a.744.744,0,0,1-.53-.22l-3.071-3.07a.75.75,0,1,1,1.061-1.06l3.07,3.07a.75.75,0,0,1-.53,1.28Z" transform="translate(-11.639 -13.64)" fill="#fff"/>
        </g>
        <g id="Group_182" data-name="Group 182" transform="translate(2)">
          <path id="Path_582" data-name="Path 582" d="M7.61,6.36a.746.746,0,0,1-.53-.22L4.01,3.07A.75.75,0,0,1,5.07,2.01L8.141,5.08A.75.75,0,0,1,7.61,6.36Z" transform="translate(-3.79 -1.79)" fill="#fff"/>
        </g>
        <g id="Group_183" data-name="Group 183" transform="translate(11.849 9.85)">
          <path id="Path_583" data-name="Path 583" d="M17.46,16.21a.744.744,0,0,1-.53-.22l-3.071-3.07a.75.75,0,1,1,1.061-1.06l3.07,3.07a.75.75,0,0,1-.53,1.28Z" transform="translate(-13.639 -11.64)" fill="#fff"/>
        </g>
      </g>
    </g>
  </g>
</svg>
