<svg id="Layer_1" data-name="Layer 1" xmlns="http://www.w3.org/2000/svg" viewBox="0 0 200 200"><defs><style>.cls-1{fill:#e9f5fe;}.cls-2{fill:#f2d45b;}.cls-3{fill:#94a4a4;}.cls-4{fill:#00556f;}.cls-5{fill:#f8e9af;}</style></defs><path class="cls-1" d="M172.06,113.62l19.61,0c5.15,0,7.92,2.78,7.92,7.9q0,16.31,0,32.62c0,4.87-2.83,7.67-7.73,7.68l-19.8,0c-1.16.83-2.49.59-3.77.59q-63.28,0-126.58,0c-4.47,0-8.94.09-13.41-.06-6.72,0-13.45,0-20.18,0a9.64,9.64,0,0,1-3.6-.65A6.21,6.21,0,0,1,.4,156.42V119.07c1.55-4.17,4.67-5.56,9-5.45,6.19.15,12.39,0,18.59,0,1.13-.87,2.47-.63,3.75-.63h137C169.85,113,171.05,112.83,172.06,113.62Z"/><path class="cls-2" d="M27.94,161.9c.58,0,1.17,0,1.75,0q70.31,0,140.62,0c.58,0,1.16,0,1.75,0,0,7.71,0,15.41,0,23.12s-3.58,12.23-10.88,14.27a2.24,2.24,0,0,0-.47.31H39.31c-7.92-1.52-11.85-6.32-11.85-14.49q0-10.2,0-20.4A4.25,4.25,0,0,1,27.94,161.9Z"/><path class="cls-2" d="M172.06,113.62c-.58,0-1.16,0-1.75,0H29.69c-.59,0-1.17,0-1.75,0,0-7.78.21-15.56,0-23.34A13.92,13.92,0,0,1,42.39,75.91c.91,0,1.82,0,2.72,0a3.19,3.19,0,0,1,2.21-.59c6.15,0,12.3-.08,18.45,0,5-.12,10,0,15,0q25.65,0,51.31,0c.72,0,1.43,0,2.14,0,6.17-.11,12.34,0,18.51,0a3.15,3.15,0,0,1,2.18.6c2.33.13,4.66,0,7,.55A13.48,13.48,0,0,1,172,89.31C172.09,97.41,172.05,105.52,172.06,113.62Z"/><path class="cls-3" d="M154.88,75.86H134.32c-.82-.7-.61-1.67-.62-2.55,0-6.09,0-12.18,0-18.27a33.74,33.74,0,0,0-67.31-3.11,58.64,58.64,0,0,0-.07,6.22c0,5.05,0,10.11,0,15.16,0,.88.2,1.85-.61,2.55H45.11c0-7.59-.21-15.18.08-22.75.6-15.77,7.05-28.84,18.87-39.26A52.53,52.53,0,0,1,92.26,1c15.79-2.13,30.1,1.8,42.49,11.88,10.9,8.86,17.33,20.43,19.6,34.27a45.45,45.45,0,0,1,.55,7.74C154.86,61.86,154.89,68.86,154.88,75.86Z"/><path class="cls-4" d="M20.85,131.24c.54-2.91-.92-7,3.64-7,4.33,0,3.3,3.9,3.55,6.78a28.87,28.87,0,0,0,4.41-2.69c1.93-1.17,4.11-.92,5.16.68s.6,3.69-1.29,5c-1.55,1.06-3.11,2.09-4.69,3.11-.75.5-.77.87,0,1.37,1.53,1,3.05,2,4.52,3,2,1.44,2.53,3.32,1.45,5s-3.37,1.95-5.36.68c-1.34-.86-2.66-1.76-4.16-2.76-.41,3,.78,6.93-3.76,6.89s-2.91-4.07-3.42-6.66c-1,0-1.52.73-2.22,1.13-1,.56-1.94,1.31-3,1.81a3.44,3.44,0,0,1-4.56-1.29,3.67,3.67,0,0,1,1.25-4.62c1.28-.89,2.59-1.71,3.88-2.57,2-1.34,2-1.35-.07-2.73-1.24-.83-2.49-1.63-3.71-2.47a3.64,3.64,0,0,1-1.31-4.75,3.61,3.61,0,0,1,5-1C17.7,129.09,19.16,130.12,20.85,131.24Z"/><path class="cls-4" d="M103.49,131.05a15.2,15.2,0,0,0,3.56-2.09,9.91,9.91,0,0,1,2-1.18,3.36,3.36,0,0,1,4.21,1.46,3.44,3.44,0,0,1-1,4.5c-1.52,1.09-3.09,2.14-4.68,3.13-1,.62-1.18,1.06,0,1.75,1.54.95,3,2,4.51,3a3.5,3.5,0,0,1,1.09,4.92,3.57,3.57,0,0,1-4.83.83c-1.52-.93-3-1.94-4.64-3-.41,2.35.54,4.76-1.6,6.39a3.2,3.2,0,0,1-2.18.62c-2.45-.07-3-1.22-3.44-6.8-1.61.46-2.76,1.62-4.09,2.46-2.19,1.37-4.36,1.17-5.47-.58s-.49-3.8,1.72-5.19c1.26-.79,2.47-1.66,3.74-2.43s1.19-1.4-.08-2.15c-1.45-.85-2.82-1.84-4.2-2.8a3.41,3.41,0,1,1,3.51-5.84,24,24,0,0,1,2.3,1.45c.75.5,1.47,1,2.32,1.65.63-1.14.28-2.25.34-3.29.12-2.25,1.56-3.79,3.59-3.74a3.53,3.53,0,0,1,3.39,3.73C103.51,128.82,103.49,129.79,103.49,131.05Z"/><path class="cls-4" d="M65.83,131.18c1.65-1.07,3-2,4.34-2.81,2-1.24,4.13-1,5.19.61s.57,3.76-1.44,5.12c-1.5,1-3,2-4.52,3-.75.48-.82.86,0,1.36,1.48.93,3,1.88,4.36,2.9.94.67,2,1.36,2.12,2.65a3.27,3.27,0,0,1-1.39,3.41,3.54,3.54,0,0,1-3.85,0c-1.55-.91-3-1.95-4.9-3.18,0,1.41,0,2.47,0,3.52a3.44,3.44,0,0,1-3.48,3.6c-2.14,0-3.38-1.25-3.47-3.57,0-1,0-2.06,0-3.27-1.7.49-2.85,1.66-4.17,2.49-2.18,1.36-4.31,1.19-5.51-.52s-.49-3.78,1.66-5.23c1.24-.83,2.44-1.72,3.72-2.47s1.5-1.26.07-2.09-2.94-1.89-4.37-2.89a3.41,3.41,0,1,1,3.73-5.71,40.58,40.58,0,0,1,3.55,2.37c1.2.9,1.38.35,1.33-.79,0-.71,0-1.42,0-2.13a3.51,3.51,0,0,1,3-3.45A3.34,3.34,0,0,1,65.59,127,34.29,34.29,0,0,1,65.83,131.18Z"/><path class="cls-4" d="M141.38,144.37c-.5,2.89,1,6.88-3.52,6.93s-3.34-3.94-3.69-7c-1.72,1.13-3.2,2.14-4.73,3.07a3.57,3.57,0,0,1-3.86.06,3.23,3.23,0,0,1-1.45-3.38c.16-1.39,1.23-2.08,2.22-2.78,1.63-1.16,3.31-2.23,5.21-3.5-2-1.34-3.8-2.56-5.6-3.79s-2.43-3.32-1.34-5,3.06-1.91,5-.77c1.48.87,2.9,1.84,4.65,3,0-1.4-.06-2.42,0-3.43.15-2.32,1.57-3.7,3.69-3.65,1.9,0,3.17,1.58,3.28,3.82.05,1-.53,2.45.33,2.87s1.7-.91,2.59-1.4c.73-.4,1.37-1,2.11-1.39a3.4,3.4,0,0,1,3.7,5.71c-1.47,1.06-3,2.08-4.52,3-1.16.7-1.4,1.19-.06,2,1.51.88,2.93,1.9,4.36,2.91a3.51,3.51,0,0,1,1.09,4.92,3.56,3.56,0,0,1-4.83.83C144.5,146.45,143,145.45,141.38,144.37Z"/><path class="cls-4" d="M175.47,151.4c-3.31,0-6.62,0-9.92,0-2.39,0-3.67-1.18-3.69-3.28s1.26-3.37,3.6-3.37q10,0,20,0c2.48,0,3.67,1.21,3.64,3.52,0,2.13-1.22,3.14-3.74,3.15Z"/><path class="cls-5" d="M46.82,86.37c1.68,0,3.37,0,5,0,2.21.05,3.41,1.27,3.39,3.36S54,93,51.78,93a30.41,30.41,0,0,1-4.27,0c-2.09-.27-2.61.62-2.41,2.5a29.7,29.7,0,0,1,0,3.89c0,2.41-1.53,4.12-3.51,4.09s-3.45-1.67-3.46-4.08c0-3,0-6.1,0-9.14,0-2.49,1.38-3.85,3.81-3.88C43.58,86.35,45.2,86.37,46.82,86.37Z"/></svg>