<svg xmlns="http://www.w3.org/2000/svg" xmlns:xlink="http://www.w3.org/1999/xlink" width="20" height="20" viewBox="0 0 20 20">
  <defs>
    <clipPath id="clip-path">
      <rect id="Rectangle_1533" data-name="Rectangle 1533" width="20" height="20" fill="#fff"/>
    </clipPath>
  </defs>
  <g id="Mask_Group_11" data-name="Mask Group 11" clip-path="url(#clip-path)">
    <g id="Group_161" data-name="Group 161" transform="translate(2)">
      <g id="Path_442" data-name="Path 442" transform="translate(9.4 0.65)">
        <path id="Path_561" data-name="Path 561" d="M16.6,6.75H12A.75.75,0,0,1,11.25,6V1.4a.75.75,0,0,1,1.5,0V5.25H16.6a.75.75,0,0,1,0,1.5Z" transform="translate(-11.25 -0.65)" fill="#fff"/>
      </g>
      <g id="Path_441" data-name="Path 441">
        <path id="Path_562" data-name="Path 562" d="M15.55,20H4.45a2.6,2.6,0,0,1-2.6-2.6V2.6A2.6,2.6,0,0,1,4.45,0h7.4a.749.749,0,0,1,.53.22l5.551,5.55a.75.75,0,0,1,.219.53V17.4A2.6,2.6,0,0,1,15.55,20ZM4.45,1.5a1.1,1.1,0,0,0-1.1,1.1V17.4a1.1,1.1,0,0,0,1.1,1.1h11.1a1.1,1.1,0,0,0,1.1-1.1V6.61L11.539,1.5Z" transform="translate(-1.85)" fill="#fff"/>
      </g>
      <g id="Group_160" data-name="Group 160" transform="translate(3.398 11.19)">
        <path id="Path_563" data-name="Path 563" d="M6.1,11.24v2.853H7.225v.66H5.248V11.24Z" transform="translate(-5.248 -11.19)" fill="#fff"/>
        <path id="Path_564" data-name="Path 564" d="M9.294,14.789a1.8,1.8,0,1,1,1.8-1.8A1.769,1.769,0,0,1,9.294,14.789Zm0-.781a.919.919,0,0,0,.926-1.021.933.933,0,1,0-1.857,0A.918.918,0,0,0,9.294,14.008Z" transform="translate(-5.248 -11.19)" fill="#fff"/>
        <path id="Path_565" data-name="Path 565" d="M14.841,12.351H13.9a.737.737,0,0,0-.691-.36.9.9,0,0,0-.916,1,.926.926,0,0,0,.986,1.031.843.843,0,0,0,.851-.621H13.039v-.631H14.9v.8a1.79,1.79,0,0,1-3.483-.575A1.715,1.715,0,0,1,13.2,11.2,1.56,1.56,0,0,1,14.841,12.351Z" transform="translate(-5.248 -11.19)" fill="#fff"/>
      </g>
    </g>
  </g>
</svg>
