<svg id="Layer_1" data-name="Layer 1" xmlns="http://www.w3.org/2000/svg" viewBox="0 0 200 200"><defs><style>.cls-1{fill:#ebeef0;}.cls-2{fill:#01647a;}.cls-3{fill:#00556f;}.cls-4{fill:#1be5ef;}.cls-5{fill:#8fa3ad;}</style></defs><path class="cls-1" d="M34.73,0H165.07c7.39,2.19,10.43,6.28,10.44,14.07,0,13.44,0,26.89,0,40.34a8.05,8.05,0,0,1-.07,1.55c.21,10.7.05,21.39.1,32.09a10.78,10.78,0,0,1-.18,2.12c-.23,1.33-1.35,1.85-2.32,2.46q-13.19,8.37-26.33,16.76c-9.39,6-18.75,12-28.16,17.9a5.57,5.57,0,0,1-2.26,1.08,4.27,4.27,0,0,1-2.45-1.07c-3.13-2.07-6.28-4.12-9.36-6.26a7.27,7.27,0,0,0-9.15,0c-3.08,2.15-6.23,4.2-9.37,6.27a5,5,0,0,1-2.42,1.14,3.29,3.29,0,0,1-1.77-.74Q57,111.78,32.06,96c-2-1.25-4-2.49-5.9-3.77a3.16,3.16,0,0,1-1.71-2,11.27,11.27,0,0,1-.19-2.52q0-14.51,0-29c0-.91.18-1.8.11-2.71-.15-4.87-.05-9.75-.06-14.62,0-9.42-.06-18.85,0-28.27A13.29,13.29,0,0,1,30.52,1.4C31.83.54,33.36.55,34.73,0Z"/><path class="cls-2" d="M83.49,128.09c3.42-1.76,6.41-4.18,9.65-6.22.88-.55,1.75-1.12,2.6-1.71a6.72,6.72,0,0,1,8.33,0c3.43,2.34,6.91,4.63,10.38,6.92a4.78,4.78,0,0,0,1.86,1,5,5,0,0,1,2.28,1q38.79,25.85,77.57,51.72c1.8,1.2,3.48,2.52,3.84,4.88v2.73A11.2,11.2,0,0,1,188.4,200H130.27Q71,200,11.66,200a11.76,11.76,0,0,1-10.11-5.22C.49,193.36.49,191.65,0,190.05V185a8.81,8.81,0,0,1,3.67-4.15q38.7-25.77,77.38-51.58A8.68,8.68,0,0,1,83.49,128.09Z"/><path class="cls-3" d="M83.49,128.09c-4.75,3.6-9.84,6.72-14.79,10Q36.27,159.81,3.75,181.38c-1.51,1-2.36,2.56-3.75,3.6V75.32c.68-.53,1.25-.07,1.77.26,7.4,4.62,14.74,9.35,22.11,14,.53.33.74.89,1.14,1.3q28.37,18,56.73,36C82.34,127.31,82.71,128,83.49,128.09Z"/><path class="cls-4" d="M0,74.93l24.94-19q0,17.49.08,35l-24-15.14a8.92,8.92,0,0,0-1-.44Z"/><path class="cls-3" d="M199.76,75.34c0,.72,0,1.43,0,2.15q0,52.56,0,105.14c0,.78,0,1.56-.06,2.34-6.37-6.4-14.38-10.53-21.75-15.52-20.13-13.62-40.42-27-60.64-40.51-.37-.25-.69-.57-1-.85L174.79,90.9a5.17,5.17,0,0,1,1.8-1.71c6.62-4.26,13.28-8.43,19.9-12.67C197.45,75.91,198.32,74.76,199.76,75.34Z"/><path class="cls-5" d="M99.91,37.46H56.43a6.24,6.24,0,0,1-4.16-11.07A6,6,0,0,1,56.22,25q43.68,0,87.35,0a6.23,6.23,0,1,1-.18,12.46Q121.66,37.49,99.91,37.46Z"/><path class="cls-5" d="M99.81,62.44q-21.65,0-43.28,0c-4.83,0-7.9-4.41-6.06-8.68A6.07,6.07,0,0,1,55.73,50a17.19,17.19,0,0,1,1.76,0h85.59c5.07,0,8.22,4.5,6.17,8.86a6.2,6.2,0,0,1-6.15,3.63Q121.45,62.42,99.81,62.44Z"/><path class="cls-5" d="M81.18,74.93q12.18,0,24.36,0c4,0,6.8,2.56,6.85,6.15s-2.8,6.33-6.86,6.33q-24.36,0-48.73,0c-4,0-6.8-2.55-6.84-6.14s2.79-6.33,6.85-6.34Q69,74.91,81.18,74.93Z"/><path class="cls-4" d="M199.76,75.34c-4.78,2.45-9.09,5.65-13.65,8.45-3.8,2.33-7.55,4.73-11.32,7.11q0-17.49.08-35l24.26,18.51C199.43,74.66,199.78,74.88,199.76,75.34Z"/></svg>