<svg xmlns="http://www.w3.org/2000/svg" xmlns:xlink="http://www.w3.org/1999/xlink" width="20" height="20" viewBox="0 0 20 20">
  <defs>
    <clipPath id="clip-path">
      <rect id="Rectangle_1533" data-name="Rectangle 1533" width="20" height="20" fill="#fff"/>
    </clipPath>
  </defs>
  <g id="Mask_Group_6" data-name="Mask Group 6" clip-path="url(#clip-path)">
    <g id="Group_103" data-name="Group 103">
      <g id="Group_97" data-name="Group 97" transform="translate(0 6.5)">
        <path id="Path_508" data-name="Path 508" d="M17.25,20H2.75A2.752,2.752,0,0,1,0,17.25v-8A2.752,2.752,0,0,1,2.75,6.5h14.5A2.752,2.752,0,0,1,20,9.25v8A2.752,2.752,0,0,1,17.25,20ZM2.75,8A1.252,1.252,0,0,0,1.5,9.25v8A1.252,1.252,0,0,0,2.75,18.5h14.5a1.252,1.252,0,0,0,1.25-1.25v-8A1.252,1.252,0,0,0,17.25,8Z" transform="translate(0 -6.5)" fill="#fff"/>
      </g>
      <g id="Group_98" data-name="Group 98" transform="translate(2.25 3.5)">
        <path id="Path_509" data-name="Path 509" d="M17,8a.75.75,0,0,1-.75-.75v-1A1.252,1.252,0,0,0,15,5H5A1.252,1.252,0,0,0,3.75,6.25v1a.75.75,0,0,1-1.5,0v-1A2.752,2.752,0,0,1,5,3.5H15a2.752,2.752,0,0,1,2.75,2.75v1A.75.75,0,0,1,17,8Z" transform="translate(-2.25 -3.5)" fill="#fff"/>
      </g>
      <g id="Group_99" data-name="Group 99" transform="translate(5.25)">
        <path id="Path_510" data-name="Path 510" d="M14,5a.75.75,0,0,1-.75-.75V2.75A1.252,1.252,0,0,0,12,1.5H8A1.252,1.252,0,0,0,6.75,2.75v1.5a.75.75,0,0,1-1.5,0V2.75A2.752,2.752,0,0,1,8,0h4a2.752,2.752,0,0,1,2.75,2.75v1.5A.75.75,0,0,1,14,5Z" transform="translate(-5.25)" fill="#fff"/>
      </g>
      <g id="Group_102" data-name="Group 102" transform="translate(4.25 10.75)">
        <g id="Group_100" data-name="Group 100">
          <path id="Path_511" data-name="Path 511" d="M9,12.25H5a.75.75,0,0,1,0-1.5H9a.75.75,0,0,1,0,1.5Z" transform="translate(-4.25 -10.75)" fill="#fff"/>
        </g>
        <g id="Group_101" data-name="Group 101" transform="translate(0 3.5)">
          <path id="Path_512" data-name="Path 512" d="M12,15.75H5a.75.75,0,0,1,0-1.5h7a.75.75,0,0,1,0,1.5Z" transform="translate(-4.25 -14.25)" fill="#fff"/>
        </g>
      </g>
    </g>
  </g>
</svg>
