<svg id="Layer_1" data-name="Layer 1" xmlns="http://www.w3.org/2000/svg" viewBox="0 0 200 200"><defs><style>.cls-1{fill:#3db29d;}.cls-2{fill:#d7ebfd;}.cls-3{fill:#88d0c3;}.cls-4{fill:#e9f5fe;}.cls-5{fill:#37a08d;}</style></defs><path class="cls-1" d="M199,93.93v13.91c-.44,2.81-.44,5.67-.65,8.5-.54,7.35-2.85,14.22-5.57,20.95A94.81,94.81,0,0,1,178,162.51c-9.78,11.79-21.29,21.38-35.27,27.88a99.5,99.5,0,0,1-21.7,7.35c-3.85.81-7.8.77-11.7,1-.63.05-1.29-.2-1.88.19H96.66c-1.23-.43-2.49-.08-3.73-.19-12.28.23-23.75-3-34.78-8.13A94.34,94.34,0,0,1,35,175.76c-9.15-8.14-17-17.33-22.76-28.26A103.34,103.34,0,0,1,2.13,119.26a62.36,62.36,0,0,1-.83-8.83,173.07,173.07,0,0,1,.47-26.75C2.66,75.43,5.37,67.62,8.66,60A95.86,95.86,0,0,1,24.6,34.86a100.52,100.52,0,0,1,26.93-22A98.15,98.15,0,0,1,81.13,2.08a68.07,68.07,0,0,1,9.34-.82,194.57,194.57,0,0,1,25.78.43,60.85,60.85,0,0,1,12.14,2.62,99.71,99.71,0,0,1,37.42,20.6,9.92,9.92,0,0,1,2.26,2.61c.64,1.19-.33,1.79-.95,2.45-2.7,2.85-5.41,5.69-8.17,8.48-6,6.08-11.86,12.32-17.86,18.42-4.91,5-9.82,10-14.68,15.06-7.61,7.93-15.18,15.91-23,23.69-1.68,1.68-3.1,3.61-4.86,5.23-2,1.85-2.32,1.9-4.26,0-9.52-9.41-19.23-18.62-28.59-28.18-4.66-4.75-7-4.74-11.82-.12-3.65,3.53-7.11,7.26-10.85,10.7-.75.8-1.5,1.59-2.23,2.41a5.13,5.13,0,0,0,0,7.3c.47.53,1,1,1.48,1.52,10.66,10.64,21.25,21.34,32,31.92C80.1,132.13,86,137.73,91.8,143.52a7.07,7.07,0,0,0,9.92.15c1.3-1.15,2.45-2.46,3.76-3.61,7-3.43,11.94-9.47,18-14.09,8.38-6.38,16.46-13.15,24.65-19.78Q170,88.51,191.93,70.87c.93-.75,1.83-1.48,3.11-.77a36.35,36.35,0,0,1,3.16,12.08C198.63,86.08,198.69,90,199,93.93Z"/><path class="cls-2" d="M194.37,39.46C196.21,41,198,42.59,199,44.88v2.71a8.32,8.32,0,0,1-3,5.35c-2,1.8-3.75,3.8-5.72,5.62-3.77,3.86-7.59,7.67-11.41,11.49-4.55,4.55-9,9.2-13.68,13.62-12.38,11.73-24.08,24.13-36.38,35.94-7.22,6.93-14.15,14.19-21.84,20.63a5,5,0,0,1-1.09.79,34.79,34.79,0,0,0-2.64,2.51,8.09,8.09,0,0,1-7.16,3,6.88,6.88,0,0,1-4.65-2Q65.86,119.21,40.29,93.87c-2.75-2.74-2.69-6.28,0-9.06.72-.73,1.5-1.39,2.25-2.09,1-.14,1.54.47,2.17,1,5.28,4.8,10.18,10,15.36,14.92,5.83,5.53,11.38,11.36,17.27,16.83,4.76,4.42,9.26,9.11,13.9,13.66,1.29,1.26,2.74,2.33,4,3.58a1.76,1.76,0,0,0,2.72,0l.56-.53c6.05-6.33,12.61-12.13,18.76-18.35,11.29-11.45,22.89-22.6,34.36-33.87C159,72.84,166,65.5,173.44,58.56c6.25-5.84,12.18-12,18.32-18C192.47,39.9,193.11,38.93,194.37,39.46Z"/><path class="cls-3" d="M92.79,199a1.26,1.26,0,0,0-.05-.33,7.92,7.92,0,0,1,3.92.33Z"/><path class="cls-4" d="M194.37,39.46c-.71.65-1.44,1.28-2.13,1.95C179.89,53.62,167.68,66,155.16,78c-7.43,7.14-14.48,14.63-22,21.65s-14.78,14.88-22.43,22c-4.28,4-8.38,8.16-12.54,12.28-1.11,1.09-1.8,1.15-3,.06-5.31-4.77-10.14-10-15.31-15C69.67,109.35,59.62,99.48,49.59,89.6c-2.34-2.29-4.89-4.36-7-6.88,4.33-4.31,8.59-8.69,13-12.91,2.69-2.58,6.23-2.27,9.11.56q15.19,15,30.36,30c1,1,1.51,1.25,2.65.08q34.64-35.91,69.35-71.73a8.34,8.34,0,0,0,.58-.75c1.26-1.18,2.51-2.38,3.79-3.53,2.16-1.94,5.73-2.18,7.76-.2C184.32,29.21,189.32,34.36,194.37,39.46Z"/><path class="cls-5" d="M189.67,58.12c1.79,4,3.67,7.95,4.65,12.25-4,2.77-7.66,6-11.47,9.07-10.46,8.32-20.84,16.73-31.23,25.12q-21.45,17.3-42.87,34.61a7.81,7.81,0,0,1-2.9,1.86q11-10.89,21.89-21.77,29.76-29.46,59.54-58.9C188.06,59.59,188.87,58.86,189.67,58.12Z"/></svg>