<svg xmlns="http://www.w3.org/2000/svg" xmlns:xlink="http://www.w3.org/1999/xlink" width="20" height="20" viewBox="0 0 20 20">
  <defs>
    <clipPath id="clip-path">
      <rect id="Rectangle_1533" data-name="Rectangle 1533" width="20" height="20" fill="#fff"/>
    </clipPath>
  </defs>
  <g id="Mask_Group_26" data-name="Mask Group 26" clip-path="url(#clip-path)">
    <g id="Group_1429" data-name="Group 1429" transform="translate(1.25 0.25)">
      <g id="Path_444" data-name="Path 444" transform="translate(0 12)">
        <path id="Path_80501" data-name="Path 80501" d="M18,19.75a.75.75,0,0,1-.75-.75V17A3.254,3.254,0,0,0,14,13.75H6A3.254,3.254,0,0,0,2.75,17v2a.75.75,0,0,1-1.5,0V17A4.756,4.756,0,0,1,6,12.25h8A4.756,4.756,0,0,1,18.75,17v2A.75.75,0,0,1,18,19.75Z" transform="translate(-1.25 -12.25)" fill="#fff"/>
      </g>
      <g id="Ellipse_340" data-name="Ellipse 340" transform="translate(4)">
        <path id="Path_80502" data-name="Path 80502" d="M10,9.75A4.75,4.75,0,1,1,14.75,5,4.756,4.756,0,0,1,10,9.75Zm0-8A3.25,3.25,0,1,0,13.25,5,3.254,3.254,0,0,0,10,1.75Z" transform="translate(-5.25 -0.25)" fill="#fff"/>
      </g>
    </g>
  </g>
</svg>
